<?xml version="1.0" encoding="UTF-8"?>
<svg width="14px" height="14px" viewBox="0 0 14 14" version="1.1" xmlns="http://www.w3.org/2000/svg" xmlns:xlink="http://www.w3.org/1999/xlink">
    <!-- Generator: Sketch 49 (51002) - http://www.bohemiancoding.com/sketch -->
    <title>pin</title>
    <desc>Created with Sketch.</desc>
    <defs></defs>
    <g id="Page-1" stroke="none" stroke-width="1" fill="none" fill-rule="evenodd">
        <g id="pin" fill-rule="nonzero">
            <circle id="Oval" fill="#FFFFFF" cx="7" cy="7" r="7"></circle>
            <path d="M11.500843,5.56745472 C11.4880023,5.5053936 11.4447592,5.45370745 11.3858429,5.43031664 C10.8661706,5.22338338 10.3151518,5.11850198 9.74808208,5.11850198 C8.86414823,5.11850198 8.18207837,5.37089642 7.91865437,5.48483232 L5.10898727,3.09689423 C5.20718116,2.23520679 4.74189319,1.64590917 4.72112141,1.62025473 C4.68732005,1.57856626 4.6376566,1.55310045 4.58421646,1.55008228 C4.53096516,1.54895047 4.47828036,1.56724812 4.44051348,1.60516388 L1.56003348,4.48261137 C1.52188893,4.52052712 1.50187249,4.57296782 1.50508267,4.6269176 C1.50810402,4.68049012 1.53397434,4.73047855 1.57608441,4.76386705 C1.98793224,5.09020664 2.49060943,5.15887 2.83957541,5.15887 C2.91737518,5.15887 2.98384489,5.15528593 3.03464134,5.15132458 L5.43699263,7.97218139 C5.27308437,8.39283879 4.77229553,9.90946904 5.37902047,11.4311924 C5.40243594,11.4902354 5.45398773,11.5332443 5.51630308,11.5460715 C5.52895499,11.5487124 5.54179573,11.5500328 5.55444763,11.5500328 C5.60411108,11.5500328 5.65226385,11.5304147 5.68795356,11.4947626 L8.43927082,8.74634191 L11.0017537,11.306127 C11.0385764,11.3429109 11.086918,11.3613972 11.1352596,11.3613972 C11.1836012,11.3613972 11.2319428,11.3429109 11.2687655,11.306127 C11.3425998,11.2323705 11.3425998,11.1131528 11.2687655,11.0393963 L8.70628267,8.47961117 L11.4494801,5.73911313 C11.4944226,5.69421785 11.5136838,5.62970448 11.500843,5.56745472 Z" id="Shape" fill="#7BCB45"></path>
        </g>
    </g>
</svg>