<?xml version="1.0" encoding="UTF-8"?>
<svg width="14px" height="14px" viewBox="0 0 14 14" version="1.1" xmlns="http://www.w3.org/2000/svg" xmlns:xlink="http://www.w3.org/1999/xlink">
    <!-- Generator: Sketch 49 (51002) - http://www.bohemiancoding.com/sketch -->
    <title>UI/icon/pin</title>
    <desc>Created with Sketch.</desc>
    <defs></defs>
    <g id="MESSENGER" stroke="none" stroke-width="1" fill="none" fill-rule="evenodd">
        <g id="messenger-subscribe" transform="translate(-50.000000, -220.000000)">
            <g id="Group-5" transform="translate(-32.000000, 59.000000)">
                <g id="Group-4">
                    <g id="UI/list">
                        <g id="UI/user-tab" transform="translate(56.000000, 147.000000)">
                            <g id="UI/icon/pin" transform="translate(26.000000, 14.000000)">
                                <g id="Group-6">
                                    <circle id="Oval" fill="#FFFFFF" cx="7" cy="7" r="7"></circle>
                                    <path d="M11.500843,5.56745471 C11.4880023,5.50539359 11.4447592,5.45370744 11.3858429,5.43031663 C10.8661706,5.22338337 10.3151518,5.11850197 9.74808208,5.11850197 C8.86414823,5.11850197 8.18207837,5.37089641 7.91865437,5.48483231 L5.10898727,3.09689422 C5.20718116,2.23520679 4.74189319,1.64590917 4.72112141,1.62025473 C4.68732005,1.57856626 4.6376566,1.55310045 4.58421646,1.55008228 C4.53096516,1.54895047 4.47828036,1.56724812 4.44051348,1.60516388 L1.56003348,4.48261136 C1.52188893,4.52052711 1.50187249,4.57296781 1.50508267,4.62691759 C1.50810402,4.68049011 1.53397434,4.73047854 1.57608441,4.76386704 C1.98793224,5.09020663 2.49060943,5.15886999 2.83957541,5.15886999 C2.91737518,5.15886999 2.98384489,5.15528592 3.03464134,5.15132457 L5.43699263,7.97218137 C5.27308437,8.39283876 4.77229553,9.90946901 5.37902047,11.4311924 C5.40243594,11.4902354 5.45398773,11.5332443 5.51630308,11.5460715 C5.52895499,11.5487124 5.54179573,11.5500328 5.55444763,11.5500328 C5.60411108,11.5500328 5.65226385,11.5304147 5.68795356,11.4947626 L8.43927082,8.74634188 L11.0017537,11.306127 C11.0385764,11.3429109 11.086918,11.3613972 11.1352596,11.3613972 C11.1836012,11.3613972 11.2319428,11.3429109 11.2687655,11.306127 C11.3425998,11.2323705 11.3425998,11.1131528 11.2687655,11.0393963 L8.70628267,8.47961114 L11.4494801,5.73911311 C11.4944226,5.69421783 11.5136838,5.62970446 11.500843,5.56745471 Z" id="Shape" fill="#282828" fill-rule="nonzero"></path>
                                </g>
                                <g id="push-pin" transform="translate(6.000000, 6.000000) rotate(-6.000000) translate(-6.000000, -6.000000) translate(1.000000, 1.000000)"></g>
                            </g>
                        </g>
                    </g>
                </g>
            </g>
        </g>
    </g>
</svg>